<svg width="99" height="39" viewBox="0 0 99 39" fill="none" xmlns="http://www.w3.org/2000/svg">
<path d="M17.1123 25V0.828125H12.4307L12.4141 16.3506L5.74023 0.828125H1.04199V25H5.74023V9.41113L12.4639 25H17.1123ZM38.2919 14.6904V11.1709C38.2919 10.0752 38.1868 9.04036 37.9765 8.06641C37.7773 7.09245 37.484 6.19596 37.0966 5.37695C36.7424 4.65755 36.3163 3.99902 35.8183 3.40137C35.3313 2.80371 34.7613 2.2946 34.1083 1.87402C33.4553 1.43132 32.7193 1.09375 31.9003 0.861328C31.0924 0.617839 30.2236 0.496094 29.2939 0.496094C28.3752 0.496094 27.523 0.612305 26.7372 0.844727C25.9514 1.07715 25.2431 1.40918 24.6122 1.84082C23.9703 2.28353 23.4003 2.81478 22.9023 3.43457C22.4153 4.05436 22.0002 4.74609 21.6571 5.50977C21.303 6.31771 21.0318 7.19759 20.8437 8.14941C20.6666 9.10124 20.578 10.1084 20.578 11.1709V14.6904C20.578 15.6865 20.6555 16.6328 20.8105 17.5293C20.9765 18.4258 21.2144 19.2559 21.5243 20.0195C21.8674 20.8496 22.2935 21.5967 22.8027 22.2607C23.3118 22.9137 23.8873 23.4727 24.5292 23.9375C25.1822 24.3802 25.9071 24.7233 26.704 24.9668C27.5009 25.2103 28.3697 25.332 29.3105 25.332C30.1959 25.332 31.0204 25.2214 31.7841 25C32.5588 24.7897 33.2672 24.4909 33.9091 24.1035C34.6174 23.6608 35.2483 23.1074 35.8017 22.4434C36.3551 21.7793 36.8199 21.0488 37.1962 20.252C37.5504 19.4551 37.8215 18.5918 38.0097 17.6621C38.1978 16.7214 38.2919 15.7308 38.2919 14.6904ZM33.5605 11.1377V14.6904C33.5605 15.2881 33.5273 15.8636 33.4609 16.417C33.4055 16.9704 33.317 17.4795 33.1952 17.9443C33.0403 18.542 32.83 19.0788 32.5644 19.5547C32.3098 20.0195 31.9944 20.4069 31.6181 20.7168C31.3193 20.9714 30.9762 21.165 30.5888 21.2979C30.2014 21.4307 29.7753 21.4971 29.3105 21.4971C28.8235 21.4971 28.3863 21.4251 27.9989 21.2812C27.6226 21.1374 27.2851 20.9326 26.9862 20.667C26.6653 20.3682 26.3831 19.9808 26.1396 19.5049C25.9071 19.0179 25.7301 18.4811 25.6083 17.8945C25.4976 17.4297 25.4202 16.9261 25.3759 16.3838C25.3316 15.8415 25.3095 15.277 25.3095 14.6904V11.1377C25.3095 10.5179 25.3316 9.92578 25.3759 9.36133C25.4312 8.79688 25.5142 8.27669 25.6249 7.80078C25.7688 7.18099 25.968 6.63867 26.2226 6.17383C26.4882 5.70898 26.8092 5.32161 27.1855 5.01172C27.4622 4.80143 27.7721 4.64095 28.1152 4.53027C28.4693 4.4196 28.8622 4.36426 29.2939 4.36426C29.7476 4.36426 30.1571 4.42513 30.5224 4.54688C30.8987 4.66862 31.2362 4.84017 31.5351 5.06152C31.9114 5.36035 32.2379 5.74772 32.5146 6.22363C32.7913 6.68848 33.0126 7.21973 33.1786 7.81738C33.3114 8.29329 33.4055 8.81348 33.4609 9.37793C33.5273 9.93132 33.5605 10.5179 33.5605 11.1377ZM47.4022 0.828125H41.6082V25H45.8914V17.8447L45.6922 6.9873L48.5311 17.0312H50.8387L54.0096 6.53906L53.8104 17.8447V25H58.0936V0.828125H52.2996L49.6932 9.90918L47.4022 0.828125ZM62.9539 0.828125V4.59668H67.5525V21.248H62.9539V25H76.9324V21.248H72.2175V4.59668H76.9324V0.828125H62.9539ZM82.0749 25H88.5661C89.6397 25 90.6468 24.8672 91.5876 24.6016C92.5394 24.3359 93.4082 23.9541 94.194 23.4561C94.8692 23.0355 95.4889 22.5153 96.0534 21.8955C96.6179 21.2646 97.1104 20.5785 97.5309 19.8369C97.9736 19.0068 98.3167 18.0938 98.5602 17.0977C98.8037 16.1016 98.9255 15.0446 98.9255 13.9268V11.9346C98.9255 10.7725 98.7927 9.67676 98.527 8.64746C98.2725 7.61816 97.9072 6.67741 97.4313 5.8252C97.0218 5.12793 96.5404 4.486 95.987 3.89941C95.4447 3.30176 94.8249 2.79818 94.1276 2.38867C93.3307 1.89062 92.4453 1.50879 91.4714 1.24316C90.4974 0.966471 89.4515 0.828125 88.3337 0.828125H82.0749V25ZM86.7731 4.61328H88.3337C88.8981 4.61328 89.4183 4.67969 89.8942 4.8125C90.3812 4.93424 90.8239 5.11133 91.2223 5.34375C91.7425 5.65365 92.1963 6.05208 92.5837 6.53906C92.9821 7.02604 93.3031 7.57943 93.5466 8.19922C93.7458 8.7194 93.8952 9.29492 93.9948 9.92578C94.1055 10.5456 94.1608 11.2041 94.1608 11.9014V13.9268C94.1608 14.6683 94.1055 15.36 93.9948 16.002C93.8952 16.6328 93.7458 17.2083 93.5466 17.7285C93.3031 18.3262 93.0098 18.8519 92.6667 19.3057C92.3346 19.7484 91.9583 20.1136 91.5378 20.4014C91.1283 20.6781 90.6745 20.8883 90.1764 21.0322C89.6784 21.1761 89.1416 21.248 88.5661 21.248H86.7731V4.61328ZM5.48047 36.1133C5.48047 36.291 5.44173 36.4505 5.36426 36.5918C5.29134 36.7285 5.18652 36.8516 5.0498 36.9609C4.84017 37.1204 4.5918 37.2412 4.30469 37.3232C4.01758 37.4007 3.71224 37.4395 3.38867 37.4395C3.13802 37.4395 2.88281 37.4167 2.62305 37.3711C2.36784 37.321 2.13542 37.2367 1.92578 37.1182C1.70703 37.0042 1.52246 36.8493 1.37207 36.6533C1.22624 36.4574 1.13965 36.2135 1.1123 35.9219H0.298828C0.3125 36.2637 0.399089 36.5713 0.558594 36.8447C0.722656 37.1182 0.945964 37.3483 1.22852 37.5352C1.50195 37.7266 1.82552 37.8747 2.19922 37.9795C2.57292 38.0843 2.9694 38.1367 3.38867 38.1367C3.77148 38.1367 4.14974 38.0889 4.52344 37.9932C4.89714 37.8975 5.22526 37.7493 5.50781 37.5488C5.74023 37.3848 5.92936 37.1774 6.0752 36.9268C6.22103 36.6761 6.29395 36.3913 6.29395 36.0723C6.29395 35.735 6.21875 35.4479 6.06836 35.2109C5.91797 34.9694 5.71289 34.7643 5.45312 34.5957C5.19336 34.4316 4.89258 34.2949 4.55078 34.1855C4.21354 34.0716 3.85807 33.9759 3.48438 33.8984C3.19271 33.8392 2.91243 33.7731 2.64355 33.7002C2.37467 33.6227 2.14453 33.527 1.95312 33.4131C1.76172 33.3037 1.61589 33.1715 1.51562 33.0166C1.41992 32.8571 1.37207 32.6702 1.37207 32.4561C1.37207 32.2419 1.42676 32.055 1.53613 31.8955C1.65007 31.7314 1.80046 31.597 1.9873 31.4922C2.1696 31.3828 2.37695 31.3031 2.60938 31.2529C2.84635 31.1982 3.09017 31.1709 3.34082 31.1709C3.60514 31.1709 3.86035 31.2051 4.10645 31.2734C4.3571 31.3418 4.5804 31.4398 4.77637 31.5674C4.96777 31.695 5.12272 31.8522 5.24121 32.0391C5.36426 32.2259 5.42806 32.4378 5.43262 32.6748H6.25293C6.23926 32.3239 6.15495 32.0117 6 31.7383C5.84505 31.4648 5.6377 31.2324 5.37793 31.041C5.11361 30.8542 4.80599 30.7129 4.45508 30.6172C4.10872 30.5169 3.7373 30.4668 3.34082 30.4668C2.98535 30.4668 2.639 30.5124 2.30176 30.6035C1.96908 30.6947 1.67741 30.8223 1.42676 30.9863C1.16243 31.1641 0.950521 31.3783 0.791016 31.6289C0.636068 31.8796 0.558594 32.1644 0.558594 32.4834C0.558594 32.8206 0.636068 33.1077 0.791016 33.3447C0.950521 33.5771 1.15788 33.7686 1.41309 33.9189C1.68652 34.0785 1.98047 34.2083 2.29492 34.3086C2.60938 34.4089 2.95573 34.4977 3.33398 34.5752C3.63021 34.639 3.91732 34.7165 4.19531 34.8076C4.47786 34.8988 4.71712 35.0081 4.91309 35.1357C5.09082 35.2497 5.22982 35.3887 5.33008 35.5527C5.43034 35.7122 5.48047 35.8991 5.48047 36.1133ZM8.24055 34.1924V34.418C8.24055 34.9193 8.31574 35.3955 8.46613 35.8467C8.61652 36.2979 8.83527 36.6921 9.12238 37.0293C9.40038 37.3711 9.74445 37.6423 10.1546 37.8428C10.5648 38.0387 11.0296 38.1367 11.5491 38.1367C12.0641 38.1367 12.5244 38.0365 12.93 37.8359C13.3356 37.6354 13.6797 37.3665 13.9622 37.0293C14.2448 36.6875 14.459 36.2933 14.6048 35.8467C14.7552 35.3955 14.8327 34.9193 14.8372 34.418V34.1924C14.8327 33.6911 14.7552 33.2148 14.6048 32.7637C14.4544 32.3125 14.2402 31.916 13.9622 31.5742C13.6751 31.237 13.3265 30.9681 12.9163 30.7676C12.5107 30.5671 12.0504 30.4668 11.5355 30.4668C11.0159 30.4668 10.5534 30.5671 10.1478 30.7676C9.74217 30.9681 9.3981 31.2393 9.11555 31.5811C8.833 31.9183 8.61652 32.3125 8.46613 32.7637C8.31574 33.2148 8.24055 33.6911 8.24055 34.1924ZM9.05402 34.418V34.1924C9.05402 33.805 9.10871 33.429 9.21809 33.0645C9.32746 32.6999 9.48697 32.3786 9.6966 32.1006C9.90624 31.818 10.1637 31.5924 10.4691 31.4238C10.7744 31.2552 11.1299 31.1709 11.5355 31.1709C11.9365 31.1709 12.2897 31.2552 12.595 31.4238C12.9049 31.5924 13.167 31.818 13.3812 32.1006C13.5863 32.3786 13.7435 32.6999 13.8529 33.0645C13.9622 33.429 14.0192 33.805 14.0238 34.1924V34.418C14.0192 34.8099 13.9622 35.1882 13.8529 35.5527C13.748 35.9128 13.5931 36.234 13.388 36.5166C13.1738 36.7992 12.914 37.0247 12.6087 37.1934C12.3034 37.3574 11.9502 37.4395 11.5491 37.4395C11.1435 37.4395 10.7858 37.3574 10.4759 37.1934C10.166 37.0247 9.90624 36.7992 9.6966 36.5166C9.48697 36.2386 9.32746 35.9173 9.21809 35.5527C9.10871 35.1882 9.05402 34.8099 9.05402 34.418ZM19.9967 37.4395C19.5638 37.4395 19.1946 37.3529 18.8893 37.1797C18.5885 37.0065 18.3424 36.7786 18.151 36.4961C17.9596 36.2181 17.8183 35.9014 17.7272 35.5459C17.6406 35.1859 17.5973 34.819 17.5973 34.4453V34.1582C17.5973 33.7891 17.6406 33.4268 17.7272 33.0713C17.8183 32.7158 17.9596 32.3945 18.151 32.1074C18.3424 31.8294 18.5885 31.6038 18.8893 31.4307C19.1946 31.2575 19.5615 31.1709 19.9899 31.1709C20.2861 31.1709 20.5595 31.2188 20.8102 31.3145C21.0654 31.4102 21.2887 31.5423 21.4801 31.7109C21.667 31.8841 21.8151 32.0892 21.9245 32.3262C22.0384 32.5586 22.1045 32.8138 22.1227 33.0918H22.902C22.8838 32.7135 22.7995 32.3626 22.6491 32.0391C22.4987 31.7155 22.2959 31.4375 22.0407 31.2051C21.7855 30.9727 21.4824 30.7926 21.1315 30.665C20.7851 30.5329 20.4046 30.4668 19.9899 30.4668C19.4521 30.4668 18.9827 30.5693 18.5817 30.7744C18.1806 30.9795 17.848 31.2529 17.5836 31.5947C17.3148 31.9365 17.1142 32.3307 16.9821 32.7773C16.8499 33.224 16.7816 33.6842 16.777 34.1582V34.4453C16.7816 34.9238 16.8499 35.3864 16.9821 35.833C17.1142 36.2751 17.3148 36.6647 17.5836 37.002C17.8525 37.3483 18.1875 37.624 18.5885 37.8291C18.9896 38.0342 19.459 38.1367 19.9967 38.1367C20.375 38.1367 20.735 38.0775 21.0768 37.959C21.4186 37.8359 21.7217 37.665 21.986 37.4463C22.2503 37.2321 22.4622 36.9769 22.6217 36.6807C22.7858 36.3844 22.8792 36.0632 22.902 35.7168H22.1227C22.0999 35.9811 22.0293 36.2204 21.9108 36.4346C21.7923 36.6442 21.6373 36.8242 21.4459 36.9746C21.25 37.125 21.0267 37.2412 20.776 37.3232C20.5299 37.4007 20.2702 37.4395 19.9967 37.4395ZM25.5254 30.6035V31.335H28.1435V37.2686H25.5254V38H31.4726V37.2686H28.957V30.6035H25.5254ZM27.9043 28.5801C27.9043 28.7441 27.9521 28.8854 28.0478 29.0039C28.1435 29.1224 28.3007 29.1816 28.5195 29.1816C28.7337 29.1816 28.8909 29.1224 28.9912 29.0039C29.0914 28.8854 29.1416 28.7441 29.1416 28.5801C29.1416 28.4889 29.1279 28.4046 29.1005 28.3271C29.0732 28.2497 29.0322 28.1836 28.9775 28.1289C28.9319 28.0742 28.8704 28.0332 28.7929 28.0059C28.7155 27.974 28.6243 27.958 28.5195 27.958C28.4147 27.958 28.3235 27.974 28.2461 28.0059C28.1686 28.0332 28.1048 28.0742 28.0546 28.1289C28 28.1882 27.9612 28.2565 27.9384 28.334C27.9157 28.4115 27.9043 28.4935 27.9043 28.5801ZM38.7581 38H39.6331L39.6263 37.918C39.5624 37.6901 39.5078 37.4508 39.4622 37.2002C39.4212 36.9495 39.4007 36.6989 39.4007 36.4482V32.873C39.3961 32.472 39.3186 32.1211 39.1682 31.8203C39.0224 31.5195 38.8242 31.2666 38.5735 31.0615C38.3183 30.8656 38.0198 30.7174 37.678 30.6172C37.3362 30.5169 36.9694 30.4668 36.5774 30.4668C36.1855 30.4668 35.8164 30.5215 35.47 30.6309C35.1282 30.7402 34.8274 30.8906 34.5677 31.082C34.3079 31.278 34.1005 31.5081 33.9456 31.7725C33.7906 32.0368 33.7063 32.3262 33.6927 32.6406L34.513 32.6475C34.5175 32.415 34.5768 32.2077 34.6907 32.0254C34.8092 31.8385 34.9596 31.6813 35.1419 31.5537C35.3287 31.4261 35.5429 31.3281 35.7845 31.2598C36.026 31.1914 36.2789 31.1572 36.5432 31.1572C36.8304 31.1572 37.097 31.196 37.343 31.2734C37.5937 31.3464 37.8102 31.4535 37.9925 31.5947C38.1748 31.736 38.3183 31.9137 38.4231 32.1279C38.5279 32.3376 38.5826 32.5814 38.5872 32.8594V33.6934H36.9807C36.5205 33.6979 36.0807 33.7435 35.6614 33.8301C35.2421 33.9121 34.8753 34.0443 34.5608 34.2266C34.2418 34.418 33.9866 34.6618 33.7952 34.958C33.6083 35.2542 33.5149 35.6143 33.5149 36.0381C33.5149 36.3571 33.5787 36.6465 33.7063 36.9062C33.8339 37.1615 34.0071 37.3802 34.2259 37.5625C34.4446 37.7448 34.7044 37.8861 35.0052 37.9863C35.3059 38.0866 35.6272 38.1367 35.969 38.1367C36.2425 38.1367 36.5045 38.1071 36.7552 38.0479C37.0104 37.9932 37.2519 37.9111 37.4798 37.8018C37.7031 37.6969 37.9082 37.5693 38.095 37.4189C38.2864 37.264 38.4527 37.0931 38.594 36.9062C38.6031 37.0977 38.6191 37.2868 38.6419 37.4736C38.6692 37.6605 38.708 37.8359 38.7581 38ZM36.0579 37.4053C35.8209 37.4053 35.5953 37.3734 35.3811 37.3096C35.1715 37.2412 34.9892 37.1432 34.8343 37.0156C34.6793 36.8926 34.5563 36.7422 34.4651 36.5645C34.374 36.3867 34.3284 36.1862 34.3284 35.9629C34.3284 35.6895 34.3876 35.457 34.5061 35.2656C34.6292 35.0697 34.7955 34.9056 35.0052 34.7734C35.2649 34.6094 35.5771 34.4954 35.9417 34.4316C36.3063 34.3678 36.6914 34.3337 37.097 34.3291H38.5872V35.9561C38.4824 36.1748 38.3457 36.373 38.177 36.5508C38.0084 36.7285 37.8147 36.8812 37.596 37.0088C37.3772 37.1364 37.138 37.2367 36.8782 37.3096C36.6184 37.3779 36.345 37.4098 36.0579 37.4053ZM42.2018 27.5V28.2314H44.8336V37.2686H42.2018V38H48.149V37.2686H45.6471V27.5H42.2018ZM58.7141 30.6035H57.9758V38H58.7483L58.7551 32.3672C58.7916 32.2305 58.8371 32.0938 58.8918 31.957C58.9465 31.8158 59.0194 31.6904 59.1106 31.5811C59.2154 31.4626 59.3453 31.3691 59.5002 31.3008C59.6597 31.2279 59.8557 31.1891 60.0881 31.1846C60.3069 31.18 60.4846 31.2119 60.6213 31.2803C60.7626 31.3486 60.8743 31.4398 60.9563 31.5537C61.0383 31.6722 61.0953 31.8089 61.1272 31.9639C61.1591 32.1143 61.175 32.2669 61.175 32.4219L61.1819 38H61.9475L61.9543 32.4287C61.9543 32.4059 61.9543 32.3854 61.9543 32.3672C61.9543 32.349 61.9543 32.3285 61.9543 32.3057C61.9862 32.1689 62.0295 32.0345 62.0842 31.9023C62.1435 31.7702 62.2255 31.6517 62.3303 31.5469C62.4306 31.4421 62.5582 31.3577 62.7131 31.2939C62.8726 31.2256 63.0663 31.1891 63.2942 31.1846C63.5175 31.18 63.6998 31.2165 63.8411 31.2939C63.9823 31.3669 64.094 31.4648 64.176 31.5879C64.258 31.7155 64.3127 31.8613 64.3401 32.0254C64.372 32.1849 64.3879 32.3421 64.3879 32.4971L64.3948 38H65.1672L65.1741 32.5039C65.1741 32.2259 65.1444 31.9616 65.0852 31.7109C65.0259 31.4603 64.928 31.2438 64.7912 31.0615C64.6682 30.8792 64.4973 30.7357 64.2786 30.6309C64.0598 30.5215 63.7955 30.4668 63.4856 30.4668C63.2714 30.4668 63.0754 30.4964 62.8977 30.5557C62.72 30.6104 62.5605 30.6833 62.4192 30.7744C62.2916 30.861 62.1776 30.9613 62.0774 31.0752C61.9771 31.1891 61.8928 31.3099 61.8245 31.4375C61.7789 31.3053 61.7174 31.1823 61.6399 31.0684C61.567 30.9499 61.4781 30.8496 61.3733 30.7676C61.2502 30.6719 61.1044 30.599 60.9358 30.5488C60.7672 30.4941 60.5712 30.4668 60.3479 30.4668C59.9423 30.4759 59.6073 30.5693 59.343 30.7471C59.0832 30.9202 58.8804 31.1504 58.7346 31.4375L58.7141 30.6035ZM70.1832 38.1367C70.7984 38.1367 71.3384 38.016 71.8033 37.7744C72.2681 37.5329 72.6395 37.2161 72.9175 36.8242L72.4048 36.4346C72.1405 36.7627 71.8238 37.0133 71.4547 37.1865C71.0855 37.3597 70.6731 37.444 70.2173 37.4395C69.8209 37.4395 69.4586 37.362 69.1304 37.207C68.8069 37.0475 68.5311 36.8356 68.3033 36.5713C68.0709 36.3115 67.8908 36.013 67.7632 35.6758C67.6356 35.3385 67.5627 34.974 67.5445 34.582V34.3564H73.0816V33.8574C73.077 33.388 73.0087 32.9482 72.8765 32.5381C72.7444 32.1234 72.5484 31.7611 72.2886 31.4512C72.0289 31.1458 71.7099 30.9066 71.3316 30.7334C70.9533 30.5557 70.5204 30.4668 70.0328 30.4668C69.5679 30.4668 69.135 30.5648 68.7339 30.7607C68.3329 30.9521 67.9866 31.2142 67.6949 31.5469C67.3941 31.8841 67.1571 32.2829 66.9839 32.7432C66.8153 33.1989 66.731 33.6888 66.731 34.2129V34.5068C66.731 35.0036 66.8153 35.473 66.9839 35.915C67.1526 36.3525 67.3895 36.7376 67.6949 37.0703C67.9957 37.3984 68.358 37.6582 68.7818 37.8496C69.2056 38.041 69.6727 38.1367 70.1832 38.1367ZM70.0328 31.1709C70.3837 31.1709 70.6959 31.2393 70.9693 31.376C71.2427 31.5081 71.4752 31.6859 71.6666 31.9092C71.8534 32.1325 71.9992 32.3923 72.1041 32.6885C72.2134 32.9847 72.2681 33.2832 72.2681 33.584V33.6592H67.5787C67.6288 33.3037 67.7222 32.9733 67.8589 32.668C67.9957 32.3626 68.1688 32.0983 68.3785 31.875C68.5881 31.6562 68.8319 31.4854 69.1099 31.3623C69.3879 31.2347 69.6955 31.1709 70.0328 31.1709ZM75.1239 34.2334V34.377C75.1239 34.8555 75.1854 35.3203 75.3085 35.7715C75.4315 36.2227 75.6115 36.6214 75.8485 36.9678C76.0946 37.3187 76.4 37.6012 76.7645 37.8154C77.1337 38.0296 77.5621 38.1367 78.0497 38.1367C78.5009 38.1367 78.9224 38.0456 79.3143 37.8633C79.7063 37.6764 80.0298 37.4076 80.285 37.0566L80.3124 38H81.0712V27.5H80.2577V31.6084C80.0162 31.2529 79.7063 30.9749 79.328 30.7744C78.9498 30.5693 78.5282 30.4668 78.0634 30.4668C77.5575 30.4668 77.12 30.5739 76.7509 30.7881C76.3817 31.0023 76.0764 31.2871 75.8348 31.6426C75.6024 31.9844 75.4247 32.3809 75.3016 32.832C75.1832 33.2786 75.1239 33.7458 75.1239 34.2334ZM75.9442 34.377V34.2334C75.9442 33.8688 75.983 33.5065 76.0604 33.1465C76.1425 32.7865 76.2701 32.4606 76.4432 32.1689C76.621 31.8773 76.8534 31.6403 77.1405 31.458C77.4322 31.2757 77.7899 31.1846 78.2138 31.1846C78.6923 31.1846 79.1093 31.3145 79.4647 31.5742C79.8248 31.8294 80.0891 32.1667 80.2577 32.5859V36.1338C80.08 36.5348 79.8065 36.8493 79.4374 37.0771C79.0682 37.305 78.6558 37.4189 78.2001 37.4189C77.7808 37.4189 77.4276 37.3278 77.1405 37.1455C76.858 36.9632 76.6255 36.7285 76.4432 36.4414C76.2701 36.1497 76.1425 35.8262 76.0604 35.4707C75.983 35.1107 75.9442 34.7461 75.9442 34.377ZM83.8928 30.6035V31.335H86.5109V37.2686H83.8928V38H89.84V37.2686H87.3244V30.6035H83.8928ZM86.2717 28.5801C86.2717 28.7441 86.3195 28.8854 86.4152 29.0039C86.5109 29.1224 86.6682 29.1816 86.8869 29.1816C87.1011 29.1816 87.2583 29.1224 87.3586 29.0039C87.4589 28.8854 87.509 28.7441 87.509 28.5801C87.509 28.4889 87.4953 28.4046 87.468 28.3271C87.4406 28.2497 87.3996 28.1836 87.3449 28.1289C87.2994 28.0742 87.2378 28.0332 87.1604 28.0059C87.0829 27.974 86.9917 27.958 86.8869 27.958C86.7821 27.958 86.691 27.974 86.6135 28.0059C86.536 28.0332 86.4722 28.0742 86.4221 28.1289C86.3674 28.1882 86.3286 28.2565 86.3059 28.334C86.2831 28.4115 86.2717 28.4935 86.2717 28.5801ZM97.1255 38H98.0005L97.9937 37.918C97.9299 37.6901 97.8752 37.4508 97.8296 37.2002C97.7886 36.9495 97.7681 36.6989 97.7681 36.4482V32.873C97.7635 32.472 97.6861 32.1211 97.5357 31.8203C97.3898 31.5195 97.1916 31.2666 96.9409 31.0615C96.6857 30.8656 96.3872 30.7174 96.0454 30.6172C95.7036 30.5169 95.3368 30.4668 94.9448 30.4668C94.5529 30.4668 94.1838 30.5215 93.8374 30.6309C93.4956 30.7402 93.1948 30.8906 92.9351 31.082C92.6753 31.278 92.468 31.5081 92.313 31.7725C92.1581 32.0368 92.0738 32.3262 92.0601 32.6406L92.8804 32.6475C92.885 32.415 92.9442 32.2077 93.0581 32.0254C93.1766 31.8385 93.327 31.6813 93.5093 31.5537C93.6961 31.4261 93.9103 31.3281 94.1519 31.2598C94.3934 31.1914 94.6463 31.1572 94.9107 31.1572C95.1978 31.1572 95.4644 31.196 95.7105 31.2734C95.9611 31.3464 96.1776 31.4535 96.3599 31.5947C96.5422 31.736 96.6857 31.9137 96.7906 32.1279C96.8954 32.3376 96.9501 32.5814 96.9546 32.8594V33.6934H95.3482C94.8879 33.6979 94.4481 33.7435 94.0288 33.8301C93.6096 33.9121 93.2427 34.0443 92.9282 34.2266C92.6092 34.418 92.354 34.6618 92.1626 34.958C91.9758 35.2542 91.8823 35.6143 91.8823 36.0381C91.8823 36.3571 91.9461 36.6465 92.0738 36.9062C92.2014 37.1615 92.3745 37.3802 92.5933 37.5625C92.812 37.7448 93.0718 37.8861 93.3726 37.9863C93.6734 38.0866 93.9947 38.1367 94.3364 38.1367C94.6099 38.1367 94.8719 38.1071 95.1226 38.0479C95.3778 37.9932 95.6193 37.9111 95.8472 37.8018C96.0705 37.6969 96.2756 37.5693 96.4624 37.4189C96.6538 37.264 96.8202 37.0931 96.9614 36.9062C96.9706 37.0977 96.9865 37.2868 97.0093 37.4736C97.0366 37.6605 97.0754 37.8359 97.1255 38ZM94.4253 37.4053C94.1883 37.4053 93.9628 37.3734 93.7486 37.3096C93.5389 37.2412 93.3566 37.1432 93.2017 37.0156C93.0467 36.8926 92.9237 36.7422 92.8325 36.5645C92.7414 36.3867 92.6958 36.1862 92.6958 35.9629C92.6958 35.6895 92.7551 35.457 92.8736 35.2656C92.9966 35.0697 93.1629 34.9056 93.3726 34.7734C93.6323 34.6094 93.9445 34.4954 94.3091 34.4316C94.6737 34.3678 95.0588 34.3337 95.4644 34.3291H96.9546V35.9561C96.8498 36.1748 96.7131 36.373 96.5445 36.5508C96.3758 36.7285 96.1822 36.8812 95.9634 37.0088C95.7447 37.1364 95.5054 37.2367 95.2456 37.3096C94.9859 37.3779 94.7124 37.4098 94.4253 37.4053Z" fill="white"/>
</svg>
