<svg xmlns="http://www.w3.org/2000/svg" viewBox="0 0 227.31 57.6"><defs><style>.cls-1{fill:#4f46e5;}</style></defs><g id="Layer_2" data-name="Layer 2"><g id="Layer_1-2" data-name="Layer 1"><path class="cls-1" d="M61.18,6.6a6.24,6.24,0,0,1-.69,2.82,5.3,5.3,0,0,1-2.25,2.25,8.2,8.2,0,0,1-4,.87,24.1,24.1,0,0,1-4.35-.39,29.49,29.49,0,0,1-3.55-.91L44.18,22.32l1,0,2.82.06,2.46,0,2.43,0,2.43,0a4.37,4.37,0,0,0,.06.72,4,4,0,0,1,.06.66,5.17,5.17,0,0,1-1.56,3.81A6.07,6.07,0,0,1,49.6,29q-.9,0-2.28-.09t-2.85-.3c-.51-.07-1-.15-1.45-.24L40.9,39.3a19.37,19.37,0,0,1-1.5,4.92,6.87,6.87,0,0,1-2.67,3,8.78,8.78,0,0,1-4.53,1,8.61,8.61,0,0,1-3.66-.75,2.73,2.73,0,0,1-1.8-2,3.4,3.4,0,0,0,1.41-1.17,7.07,7.07,0,0,0,.87-2,32.58,32.58,0,0,0,.72-3.21L34,17.34a14.33,14.33,0,0,1,2.52-5.85,13,13,0,0,1,3.17-3l0-.48a14,14,0,0,0-2.28-.78A9.14,9.14,0,0,0,35.26,7a5.82,5.82,0,0,0-4.65,2.07,8.54,8.54,0,0,0-1.77,5.73,16.35,16.35,0,0,0,.33,3.33,13.69,13.69,0,0,0,1.29,3.45,4.81,4.81,0,0,1-2,1.2,6.86,6.86,0,0,1-2,.36,7.61,7.61,0,0,1-4.23-1.11,6.62,6.62,0,0,1-2.52-3A10.11,10.11,0,0,1,18.88,15a11.58,11.58,0,0,1,1.5-5.58A11.93,11.93,0,0,1,25,4.83,15.91,15.91,0,0,1,33.1,3a42.27,42.27,0,0,1,6.75.51q3.15.51,6,1a29.38,29.38,0,0,0,5.4.54,14.54,14.54,0,0,0,4.29-.6,9.25,9.25,0,0,0,3.69-2.28,5.38,5.38,0,0,1,1.41,1.95A6,6,0,0,1,61.18,6.6Z"/><path class="cls-1" d="M87.7,20.37a10.13,10.13,0,0,0-2.31-3.75,9.84,9.84,0,0,0-3.84-2.37,16.22,16.22,0,0,0-5.37-.81,18.51,18.51,0,0,0-8,1.62,16.25,16.25,0,0,0-5.79,4.5,20,20,0,0,0-3.54,6.69,26.91,26.91,0,0,0-1.2,8.13,15.15,15.15,0,0,0,.78,5,10.17,10.17,0,0,0,2.34,3.81,9.9,9.9,0,0,0,3.9,2.4,16.28,16.28,0,0,0,5.34.81,17.88,17.88,0,0,0,7.86-1.65,16.62,16.62,0,0,0,5.79-4.59,20.41,20.41,0,0,0,3.57-6.75,26.91,26.91,0,0,0,1.2-8.13A14.69,14.69,0,0,0,87.7,20.37Zm-9.63,6.42a54.58,54.58,0,0,1-.84,5.67,35.44,35.44,0,0,1-1.44,5.19,12.39,12.39,0,0,1-2.07,3.78A3.5,3.5,0,0,1,71,42.84a2.57,2.57,0,0,1-2.49-1.29,6.89,6.89,0,0,1-.69-3.27q0-2.46.27-5.31t.81-5.67a31.23,31.23,0,0,1,1.41-5.13,12.1,12.1,0,0,1,2.1-3.72A3.64,3.64,0,0,1,75.22,17a2.52,2.52,0,0,1,2.46,1.26,7.12,7.12,0,0,1,.66,3.3Q78.34,23.94,78.07,26.79Z"/><path class="cls-1" d="M121.06,20.37a10.13,10.13,0,0,0-2.31-3.75,9.84,9.84,0,0,0-3.84-2.37,16.22,16.22,0,0,0-5.37-.81,18.51,18.51,0,0,0-8,1.62,16.25,16.25,0,0,0-5.79,4.5,20,20,0,0,0-3.54,6.69,26.91,26.91,0,0,0-1.2,8.13,15.15,15.15,0,0,0,.78,5,10.17,10.17,0,0,0,2.34,3.81,9.9,9.9,0,0,0,3.9,2.4,16.28,16.28,0,0,0,5.34.81,17.88,17.88,0,0,0,7.86-1.65,16.62,16.62,0,0,0,5.79-4.59,20.41,20.41,0,0,0,3.57-6.75,26.91,26.91,0,0,0,1.2-8.13A14.69,14.69,0,0,0,121.06,20.37Zm-9.63,6.42a54.58,54.58,0,0,1-.84,5.67,35.44,35.44,0,0,1-1.44,5.19,12.39,12.39,0,0,1-2.07,3.78,3.5,3.5,0,0,1-2.7,1.41,2.57,2.57,0,0,1-2.49-1.29,6.89,6.89,0,0,1-.69-3.27q0-2.46.27-5.31t.81-5.67a31.23,31.23,0,0,1,1.41-5.13,12.1,12.1,0,0,1,2.1-3.72A3.64,3.64,0,0,1,108.58,17,2.52,2.52,0,0,1,111,18.3a7.12,7.12,0,0,1,.66,3.3Q111.7,23.94,111.43,26.79Z"/><path class="cls-1" d="M157.06,1.08A6.27,6.27,0,0,0,153.4,0a12.46,12.46,0,0,0-3.09.39,9.48,9.48,0,0,0-2.61,1,15.88,15.88,0,0,1,.15,1.68q0,.84,0,1.8-.12,2.34-.54,5.19c-.19,1.26-.4,2.56-.63,3.92a8.22,8.22,0,0,0-1.8-.41,22.48,22.48,0,0,0-2.85-.18A15.66,15.66,0,0,0,135,15.06a17.49,17.49,0,0,0-5.7,4.53,21.52,21.52,0,0,0-3.78,6.78,25.24,25.24,0,0,0-1.35,8.37,17.32,17.32,0,0,0,1,6.15A8.52,8.52,0,0,0,128.26,45a9.21,9.21,0,0,0,5.4,1.47,12.94,12.94,0,0,0,5-.93A11.63,11.63,0,0,0,142.48,43a4.24,4.24,0,0,0,2.1,2.58,7.1,7.1,0,0,0,3.42.84,9.93,9.93,0,0,0,2.85-.42,6.93,6.93,0,0,0,2.49-1.32,5,5,0,0,0,1.56-2.34,2.45,2.45,0,0,1-2-.93,3.24,3.24,0,0,1-.63-2,7.79,7.79,0,0,1,.12-1.26q.12-.72.18-1.26,1.26-5.58,2.25-10.8.91-4.86,1.77-9.36.6-2.76,1-5.1t.69-4.08A18.66,18.66,0,0,0,158.56,5Q158.62,2.16,157.06,1.08ZM142.78,34.62a21.92,21.92,0,0,1-1,3.6,9.79,9.79,0,0,1-1.77,3.15,3.65,3.65,0,0,1-2.91,1.29,2.19,2.19,0,0,1-2.28-1.53,10.13,10.13,0,0,1-.54-3.39q0-2.28.24-5.07a46.47,46.47,0,0,1,.81-5.52,29.78,29.78,0,0,1,1.5-5,11.48,11.48,0,0,1,2.25-3.69A4.11,4.11,0,0,1,142.18,17a5.46,5.46,0,0,1,1.65.3,6.45,6.45,0,0,1,1.83,1Z"/><path class="cls-1" d="M165.88,46.44A6.8,6.8,0,0,1,161.41,45a5.16,5.16,0,0,1-1.71-4.23,22.39,22.39,0,0,1,.21-2.73q.21-1.65.54-3.48t.66-3.45q.33-1.62.57-2.7l2.7-13.8,10.8-1.08L170.56,37q-.06.48-.18,1.2a8.08,8.08,0,0,0-.12,1.32,3.36,3.36,0,0,0,.6,2,2.37,2.37,0,0,0,2,.93,5,5,0,0,1-2.7,3.09A9.64,9.64,0,0,1,165.88,46.44Zm5.58-36.72a7.43,7.43,0,0,1-4.26-1.14,3.74,3.74,0,0,1-1.68-3.3,3.87,3.87,0,0,1,1.77-3.45A7.72,7.72,0,0,1,171.64.66a6.9,6.9,0,0,1,4.14,1.17,3.86,3.86,0,0,1,1.62,3.33,3.84,3.84,0,0,1-1.71,3.42A7.46,7.46,0,0,1,171.46,9.72Z"/><path class="cls-1" d="M189.7,46.44a14.92,14.92,0,0,1-6.45-1.32,9.68,9.68,0,0,1-4.35-4,14,14,0,0,1-1.56-7,25.9,25.9,0,0,1,1.11-7.56,20.3,20.3,0,0,1,3.42-6.63,16.39,16.39,0,0,1,5.91-4.71,19.39,19.39,0,0,1,8.52-1.74,17.2,17.2,0,0,1,4.77.63,7.26,7.26,0,0,1,3.57,2.22A6.7,6.7,0,0,1,206,20.82a8.21,8.21,0,0,1-1.77,5.28,11.55,11.55,0,0,1-5.16,3.48,27.76,27.76,0,0,1-8.25,1.5h-3.12q-.06.72-.12,1.47t-.06,1.35A6.56,6.56,0,0,0,188.68,38q1.14,1.47,4,1.47a11.22,11.22,0,0,0,4.62-1,7.2,7.2,0,0,0,3.42-3,2.74,2.74,0,0,1,1.17,1.17,3.79,3.79,0,0,1,.33,1.65,6.11,6.11,0,0,1-1.71,4.26,11.17,11.17,0,0,1-4.56,2.88A18.3,18.3,0,0,1,189.7,46.44Zm-1.62-18.06a11.45,11.45,0,0,0,3.81-.6,8.89,8.89,0,0,0,3-1.71,7.31,7.31,0,0,0,1.92-2.67,8.85,8.85,0,0,0,.66-3.48,4.41,4.41,0,0,0-.57-2.43,2.09,2.09,0,0,0-1.89-.87,3.75,3.75,0,0,0-2.22.78,7.22,7.22,0,0,0-1.95,2.28,18.43,18.43,0,0,0-1.56,3.69A38,38,0,0,0,188.08,28.38Z"/><path class="cls-1" d="M28.45,26.6C8.18,27.33,1.29,13.91.68,12.66h0A5.35,5.35,0,0,1,0,10C0,7.27,1.9,5.07,4.24,5.07S8.48,7.27,8.48,10C10.17,26.18,26.72,26.6,28.45,26.6Z"/><path class="cls-1" d="M25,41.28C7.17,40.73,1.13,50.9.6,51.85h0a3.65,3.65,0,0,0-.61,2,3.72,3.72,0,0,0,7.44,0C8.92,41.6,23.43,41.28,25,41.28Z"/><path class="cls-1" d="M202.35,33.1c17.78-.55,23.82,9.62,24.35,10.57h0a3.66,3.66,0,0,1,.62,2,3.72,3.72,0,1,1-7.44,0C218.38,33.42,203.88,33.1,202.35,33.1Z"/><path class="cls-1" d="M202.35,29.4c17.78.55,23.82-9.62,24.35-10.57h0a3.66,3.66,0,0,0,.62-2,3.72,3.72,0,1,0-7.44,0C218.38,29.08,203.88,29.4,202.35,29.4Z"/></g></g></svg>