<svg xmlns="http://www.w3.org/2000/svg" viewBox="0 0 100 100"><defs><style>.cls-1{fill:#fff;}.cls-2{fill:#4f46e5;}</style></defs><g id="Layer_2" data-name="Layer 2"><g id="Layer_1-2" data-name="Layer 1"><circle class="cls-1" cx="50" cy="50" r="50"/><path class="cls-2" d="M29.87,48.11a11.26,11.26,0,0,1-6.21-1.63A9.81,9.81,0,0,1,20,42.12a14.89,14.89,0,0,1-1.18-6A17,17,0,0,1,21,27.94,17.47,17.47,0,0,1,27.8,21.2c3.09-1.79,7-2.69,11.85-2.69a62,62,0,0,1,9.91.75c3.08.5,6,1,8.85,1.54a43,43,0,0,0,7.92.8,21.6,21.6,0,0,0,6.3-.88,13.72,13.72,0,0,0,5.42-3.35,7.93,7.93,0,0,1,2.07,2.86,8.87,8.87,0,0,1,.75,3.57,9.11,9.11,0,0,1-1,4.14,7.72,7.72,0,0,1-3.3,3.3,12.05,12.05,0,0,1-5.9,1.28A35.65,35.65,0,0,1,64.26,32a44.17,44.17,0,0,1-6.69-1.85c-2.38-.85-5.12-2-8.23-3.39l-.09-.8a19.84,19.84,0,0,0-3.35-1.14,13.11,13.11,0,0,0-3.08-.35,8.57,8.57,0,0,0-6.83,3q-2.6,3-2.59,8.41a24.14,24.14,0,0,0,.48,4.89,19.92,19.92,0,0,0,1.89,5.07,7,7,0,0,1-2.9,1.76A10.22,10.22,0,0,1,29.87,48.11Zm8.46,36.81A12.66,12.66,0,0,1,33,83.82c-1.59-.74-2.47-1.72-2.65-2.95a5,5,0,0,0,2.07-1.72,10.23,10.23,0,0,0,1.28-2.9c.35-1.21.7-2.78,1.06-4.72l6.25-32A21,21,0,0,1,44.67,31a19.27,19.27,0,0,1,6.69-5.55,30,30,0,0,1,9.25-2.86L51.1,71.8A29,29,0,0,1,48.9,79,10.1,10.1,0,0,1,45,83.42,12.89,12.89,0,0,1,38.33,84.92ZM63.87,56.65c-.88,0-2,0-3.35-.13s-2.74-.24-4.18-.44a35.67,35.67,0,0,1-3.83-.75l1.67-8.54c.82.05,1.91.1,3.26.13l4.14.09c1.41,0,2.61,0,3.61,0,1.17,0,2.36,0,3.57,0s2.39,0,3.56,0A6.32,6.32,0,0,0,72.41,48a5.74,5.74,0,0,1,.09,1,7.57,7.57,0,0,1-2.29,5.59A8.92,8.92,0,0,1,63.87,56.65Z"/></g></g></svg>